<svg width="20" height="20" viewBox="0 0 20 20" fill="none" xmlns="http://www.w3.org/2000/svg">
<g clip-path="url(#clip0)">
<path d="M15.4415 5.31799C15.0229 5.31799 14.6818 4.97687 14.6818 4.55826V3.03879C14.6818 2.62017 15.0229 2.27905 15.4415 2.27905H16.961C17.3796 2.27905 17.7207 2.62017 17.7207 3.03879V4.55826C17.7207 4.97687 17.3796 5.31799 16.961 5.31799H15.4415Z" fill="black"/>
<path d="M10.1234 6.9805C9.57183 6.9805 9.06281 7.14232 8.62445 7.40823C8.7612 7.36569 8.90327 7.33757 9.05294 7.33757C9.86433 7.33757 10.5215 7.99474 10.5215 8.8069C10.5215 9.61678 9.86433 10.2755 9.05294 10.2755C8.24154 10.2755 7.58437 9.61754 7.58437 8.8069C7.58437 8.65571 7.614 8.51364 7.65578 8.37765C7.38836 8.81602 7.22729 9.32504 7.22729 9.87661C7.22729 11.4774 8.52264 12.7735 10.1242 12.7735C11.7234 12.7735 13.021 11.4781 13.021 9.87661C13.021 8.27509 11.7226 6.9805 10.1234 6.9805Z" fill="black"/>
<path d="M10.1234 5.3182C12.6404 5.3182 14.6818 7.35885 14.6818 9.87661C14.6818 12.3944 12.6396 14.435 10.1234 14.435C7.60641 14.435 5.565 12.3944 5.565 9.87661C5.565 7.35885 7.60641 5.3182 10.1234 5.3182ZM10.1234 3.79874C6.77222 3.79874 4.04553 6.52542 4.04553 9.87661C4.04553 13.2278 6.77222 15.9545 10.1234 15.9545C13.4746 15.9545 16.2013 13.2278 16.2013 9.87661C16.2013 6.52542 13.4746 3.79874 10.1234 3.79874Z" fill="black"/>
<path d="M16.2962 0H3.95053C1.90457 0 0.246826 1.65774 0.246826 3.7037V16.0494C0.246826 18.0953 1.90457 19.7531 3.95053 19.7531H16.2962C18.3422 19.7531 19.9999 18.0953 19.9999 16.0494V3.7037C19.9999 1.65774 18.3422 0 16.2962 0ZM18.4804 6.83761H13.5141C14.2381 7.6452 14.6818 8.70731 14.6818 9.87654C14.6818 12.3943 12.6396 14.4349 10.1234 14.4349C7.60637 14.4349 5.56496 12.3943 5.56496 9.87654C5.56496 8.70731 6.00865 7.64444 6.73268 6.83761H1.76629V3.7037C1.76629 2.49953 2.74635 1.51947 3.95053 1.51947H16.2962C17.5011 1.51947 18.4804 2.49953 18.4804 3.7037V6.83761Z" fill="black"/>
</g>
<defs>
<clipPath id="clip0">
<rect width="19.7531" height="19.7531" fill="white" transform="translate(0.246826)"/>
</clipPath>
</defs>
</svg>
